# Created by Kenney (www.kenney.nl)

mtllib fence-low.mtl

g fence-low

v -0.5725001 0 -0.4375 1 1 1
v -0.5625 0 -0.4275 1 1 1
v -0.5725001 0.1 -0.4375 1 1 1
v -0.5625 0.1 -0.4275 1 1 1
v -0.6375 0.1 -0.3725 1 1 1
v -0.6375 0.1 -0.4275 1 1 1
v -0.6275 0.1 -0.3625 1 1 1
v -0.6275 0.1 -0.4375 1 1 1
v -0.5725001 0.1 -0.3625 1 1 1
v -0.5625 0.1 -0.3725 1 1 1
v -0.5625 0 -0.3725 1 1 1
v -0.6275 0 -0.3625 1 1 1
v -0.6375 0 -0.3725 1 1 1
v -0.6275 0 -0.4375 1 1 1
v -0.5725001 0 -0.3625 1 1 1
v -0.6375 0 -0.4275 1 1 1
v 0.6275 0 -0.0375 1 1 1
v 0.6375 0 -0.0275 1 1 1
v 0.6275 0.1 -0.0375 1 1 1
v 0.6375 0.1 -0.0275 1 1 1
v 0.5625 0.1 0.0275 1 1 1
v 0.5625 0.1 -0.0275 1 1 1
v 0.5725001 0.1 0.0375 1 1 1
v 0.5725001 0.1 -0.0375 1 1 1
v 0.6275 0.1 0.0375 1 1 1
v 0.6375 0.1 0.0275 1 1 1
v 0.6375 0 0.0275 1 1 1
v 0.5725001 0 0.0375 1 1 1
v 0.5625 0 0.0275 1 1 1
v 0.5725001 0 -0.0375 1 1 1
v 0.6275 0 0.0375 1 1 1
v 0.5625 0 -0.0275 1 1 1
v 0.6275 0 -0.4375 1 1 1
v 0.6375 0 -0.4275 1 1 1
v 0.6275 0.1 -0.4375 1 1 1
v 0.6375 0.1 -0.4275 1 1 1
v 0.5625 0.1 -0.3725 1 1 1
v 0.5625 0.1 -0.4275 1 1 1
v 0.5725001 0.1 -0.3625 1 1 1
v 0.5725001 0.1 -0.4375 1 1 1
v 0.6275 0.1 -0.3625 1 1 1
v 0.6375 0.1 -0.3725 1 1 1
v 0.6375 0 -0.3725 1 1 1
v 0.5725001 0 -0.3625 1 1 1
v 0.5625 0 -0.3725 1 1 1
v 0.5725001 0 -0.4375 1 1 1
v 0.6275 0 -0.3625 1 1 1
v 0.5625 0 -0.4275 1 1 1
v -0.5725001 0 -0.0375 1 1 1
v -0.5625 0 -0.0275 1 1 1
v -0.5725001 0.1 -0.0375 1 1 1
v -0.5625 0.1 -0.0275 1 1 1
v -0.6375 0.1 0.0275 1 1 1
v -0.6375 0.1 -0.0275 1 1 1
v -0.6275 0.1 0.0375 1 1 1
v -0.6275 0.1 -0.0375 1 1 1
v -0.5725001 0.1 0.0375 1 1 1
v -0.5625 0.1 0.0275 1 1 1
v -0.5625 0 0.0275 1 1 1
v -0.6275 0 0.0375 1 1 1
v -0.6375 0 0.0275 1 1 1
v -0.6275 0 -0.0375 1 1 1
v -0.5725001 0 0.0375 1 1 1
v -0.6375 0 -0.0275 1 1 1
v 0.6125 3.253113E-14 -0.4 1 1 1
v 0.6125 0 0.4 1 1 1
v 0.5875 3.253113E-14 -0.4 1 1 1
v 0.5875 0 0.4 1 1 1
v 0.5875 0.15 0.4 1 1 1
v 0.5875 0.15 -0.4 1 1 1
v 0.6125 0.15 0.4 1 1 1
v 0.6125 0.15 -0.4 1 1 1
v -0.5875 0 0.4 1 1 1
v -0.6125 0 0.4 1 1 1
v -0.5875 3.253113E-14 -0.4 1 1 1
v -0.6125 3.253113E-14 -0.4 1 1 1
v -0.6125 0.15 0.4 1 1 1
v -0.6125 0.15 -0.4 1 1 1
v -0.5875 0.15 0.4 1 1 1
v -0.5875 0.15 -0.4 1 1 1
v 0.575 0 -0.025 1 1 1
v 0.575 0 0.025 1 1 1
v 0.625 0 -0.025 1 1 1
v 0.625 0 0.025 1 1 1
v 0.575 0.17 0.025 1 1 1
v 0.575 0.17 -0.025 1 1 1
v 0.625 0.17 0.025 1 1 1
v 0.625 0.17 -0.025 1 1 1
v -0.625 0 -0.025 1 1 1
v -0.625 0 0.025 1 1 1
v -0.575 0 -0.025 1 1 1
v -0.575 0 0.025 1 1 1
v -0.625 0.17 0.025 1 1 1
v -0.625 0.17 -0.025 1 1 1
v -0.575 0.17 0.025 1 1 1
v -0.575 0.17 -0.025 1 1 1
v -0.625 0 -0.425 1 1 1
v -0.625 0 -0.375 1 1 1
v -0.575 0 -0.425 1 1 1
v -0.575 0 -0.375 1 1 1
v -0.625 0.17 -0.375 1 1 1
v -0.625 0.17 -0.425 1 1 1
v -0.575 0.17 -0.375 1 1 1
v -0.575 0.17 -0.425 1 1 1
v 0.575 0 -0.425 1 1 1
v 0.575 0 -0.375 1 1 1
v 0.625 0 -0.425 1 1 1
v 0.625 0 -0.375 1 1 1
v 0.575 0.17 -0.375 1 1 1
v 0.575 0.17 -0.425 1 1 1
v 0.625 0.17 -0.375 1 1 1
v 0.625 0.17 -0.425 1 1 1

vn 0.3826835 0 -0.9238796
vn 0.9238796 0 -0.3826835
vn 0 1 0
vn 0.9238796 0 0.3826835
vn -0.3826835 0 0.9238796
vn -0.9238796 0 0.3826835
vn -0.3826835 0 -0.9238796
vn 0.3826835 0 0.9238796
vn -0.9238796 0 -0.3826835
vn 0 -1 0
vn -1 0 7.136982E-14
vn 1 0 -7.136982E-14
vn 7.136982E-14 0 1
vn 1 0 0
vn 0 0 1
vn -1 0 0
vn 0 0 -1

vt 0.59375 0.395
vt 0.59375 0.475
vt 0.59375 0.275
vt 0.59375 0.355
vt 0.59375 0.325
vt 0.59375 0.425

usemtl colormap

f 3/2/1 2/1/2 1/1/1
f 2/1/2 3/2/1 4/2/2
f 7/2/3 6/2/3 5/2/3
f 6/2/3 7/2/3 8/2/3
f 8/2/3 7/2/3 9/2/3
f 8/2/3 9/2/3 3/2/3
f 3/2/3 9/2/3 10/2/3
f 3/2/3 10/2/3 4/2/3
f 2/1/2 10/2/4 11/1/4
f 10/2/4 2/1/2 4/2/2
f 7/2/5 13/1/6 12/1/5
f 13/1/6 7/2/5 5/2/6
f 8/2/7 1/1/1 14/1/7
f 1/1/1 8/2/7 3/2/1
f 9/2/8 12/1/5 15/1/8
f 12/1/5 9/2/8 7/2/5
f 6/2/9 14/1/7 16/1/9
f 14/1/7 6/2/9 8/2/7
f 14/1/10 13/1/10 16/1/10
f 13/1/10 14/1/10 12/1/10
f 12/1/10 14/1/10 1/1/10
f 12/1/10 1/1/10 15/1/10
f 15/1/10 1/1/10 2/1/10
f 15/1/10 2/1/10 11/1/10
f 10/2/4 15/1/8 11/1/4
f 15/1/8 10/2/4 9/2/8
f 6/2/9 13/1/6 5/2/6
f 13/1/6 6/2/9 16/1/9
f 19/2/1 18/1/2 17/1/1
f 18/1/2 19/2/1 20/2/2
f 23/2/3 22/2/3 21/2/3
f 22/2/3 23/2/3 24/2/3
f 24/2/3 23/2/3 25/2/3
f 24/2/3 25/2/3 19/2/3
f 19/2/3 25/2/3 26/2/3
f 19/2/3 26/2/3 20/2/3
f 18/1/2 26/2/4 27/1/4
f 26/2/4 18/1/2 20/2/2
f 23/2/5 29/1/6 28/1/5
f 29/1/6 23/2/5 21/2/6
f 24/2/7 17/1/1 30/1/7
f 17/1/1 24/2/7 19/2/1
f 25/2/8 28/1/5 31/1/8
f 28/1/5 25/2/8 23/2/5
f 22/2/9 30/1/7 32/1/9
f 30/1/7 22/2/9 24/2/7
f 30/1/10 29/1/10 32/1/10
f 29/1/10 30/1/10 28/1/10
f 28/1/10 30/1/10 17/1/10
f 28/1/10 17/1/10 31/1/10
f 31/1/10 17/1/10 18/1/10
f 31/1/10 18/1/10 27/1/10
f 26/2/4 31/1/8 27/1/4
f 31/1/8 26/2/4 25/2/8
f 22/2/9 29/1/6 21/2/6
f 29/1/6 22/2/9 32/1/9
f 35/2/1 34/1/2 33/1/1
f 34/1/2 35/2/1 36/2/2
f 39/2/3 38/2/3 37/2/3
f 38/2/3 39/2/3 40/2/3
f 40/2/3 39/2/3 41/2/3
f 40/2/3 41/2/3 35/2/3
f 35/2/3 41/2/3 42/2/3
f 35/2/3 42/2/3 36/2/3
f 34/1/2 42/2/4 43/1/4
f 42/2/4 34/1/2 36/2/2
f 39/2/5 45/1/6 44/1/5
f 45/1/6 39/2/5 37/2/6
f 40/2/7 33/1/1 46/1/7
f 33/1/1 40/2/7 35/2/1
f 41/2/8 44/1/5 47/1/8
f 44/1/5 41/2/8 39/2/5
f 38/2/9 46/1/7 48/1/9
f 46/1/7 38/2/9 40/2/7
f 46/1/10 45/1/10 48/1/10
f 45/1/10 46/1/10 44/1/10
f 44/1/10 46/1/10 33/1/10
f 44/1/10 33/1/10 47/1/10
f 47/1/10 33/1/10 34/1/10
f 47/1/10 34/1/10 43/1/10
f 42/2/4 47/1/8 43/1/4
f 47/1/8 42/2/4 41/2/8
f 38/2/9 45/1/6 37/2/6
f 45/1/6 38/2/9 48/1/9
f 51/2/1 50/1/2 49/1/1
f 50/1/2 51/2/1 52/2/2
f 55/2/3 54/2/3 53/2/3
f 54/2/3 55/2/3 56/2/3
f 56/2/3 55/2/3 57/2/3
f 56/2/3 57/2/3 51/2/3
f 51/2/3 57/2/3 58/2/3
f 51/2/3 58/2/3 52/2/3
f 50/1/2 58/2/4 59/1/4
f 58/2/4 50/1/2 52/2/2
f 55/2/5 61/1/6 60/1/5
f 61/1/6 55/2/5 53/2/6
f 56/2/7 49/1/1 62/1/7
f 49/1/1 56/2/7 51/2/1
f 57/2/8 60/1/5 63/1/8
f 60/1/5 57/2/8 55/2/5
f 54/2/9 62/1/7 64/1/9
f 62/1/7 54/2/9 56/2/7
f 62/1/10 61/1/10 64/1/10
f 61/1/10 62/1/10 60/1/10
f 60/1/10 62/1/10 49/1/10
f 60/1/10 49/1/10 63/1/10
f 63/1/10 49/1/10 50/1/10
f 63/1/10 50/1/10 59/1/10
f 58/2/4 63/1/8 59/1/4
f 63/1/8 58/2/4 57/2/8
f 54/2/9 61/1/6 53/2/6
f 61/1/6 54/2/9 64/1/9
f 71/4/13 69/4/13 66/3/13
f 68/3/13 66/3/13 69/4/13
f 70/4/3 69/4/3 72/4/3
f 71/4/3 72/4/3 69/4/3
f 65/3/12 72/4/12 66/3/12
f 71/4/12 66/3/12 72/4/12
f 67/3/11 68/3/11 70/4/11
f 69/4/11 70/4/11 68/3/11
f 68/3/10 67/3/10 66/3/10
f 65/3/10 66/3/10 67/3/10
f 79/4/13 77/4/13 73/3/13
f 74/3/13 73/3/13 77/4/13
f 78/4/3 77/4/3 80/4/3
f 79/4/3 80/4/3 77/4/3
f 75/3/12 80/4/12 73/3/12
f 79/4/12 73/3/12 80/4/12
f 76/3/11 74/3/11 78/4/11
f 77/4/11 78/4/11 74/3/11
f 76/3/10 75/3/10 74/3/10
f 73/3/10 74/3/10 75/3/10
f 83/5/10 82/5/10 81/5/10
f 82/5/10 83/5/10 84/5/10
f 87/6/3 86/6/3 85/6/3
f 86/6/3 87/6/3 88/6/3
f 83/5/14 87/6/14 84/5/14
f 87/6/14 83/5/14 88/6/14
f 87/6/15 82/5/15 84/5/15
f 82/5/15 87/6/15 85/6/15
f 86/6/16 82/5/16 85/6/16
f 82/5/16 86/6/16 81/5/16
f 86/6/17 83/5/17 81/5/17
f 83/5/17 86/6/17 88/6/17
f 91/5/10 90/5/10 89/5/10
f 90/5/10 91/5/10 92/5/10
f 95/6/3 94/6/3 93/6/3
f 94/6/3 95/6/3 96/6/3
f 91/5/14 95/6/14 92/5/14
f 95/6/14 91/5/14 96/6/14
f 95/6/15 90/5/15 92/5/15
f 90/5/15 95/6/15 93/6/15
f 94/6/16 90/5/16 93/6/16
f 90/5/16 94/6/16 89/5/16
f 94/6/17 91/5/17 89/5/17
f 91/5/17 94/6/17 96/6/17
f 99/5/10 98/5/10 97/5/10
f 98/5/10 99/5/10 100/5/10
f 103/6/3 102/6/3 101/6/3
f 102/6/3 103/6/3 104/6/3
f 99/5/14 103/6/14 100/5/14
f 103/6/14 99/5/14 104/6/14
f 103/6/15 98/5/15 100/5/15
f 98/5/15 103/6/15 101/6/15
f 102/6/16 98/5/16 101/6/16
f 98/5/16 102/6/16 97/5/16
f 102/6/17 99/5/17 97/5/17
f 99/5/17 102/6/17 104/6/17
f 107/5/10 106/5/10 105/5/10
f 106/5/10 107/5/10 108/5/10
f 111/6/3 110/6/3 109/6/3
f 110/6/3 111/6/3 112/6/3
f 107/5/14 111/6/14 108/5/14
f 111/6/14 107/5/14 112/6/14
f 111/6/15 106/5/15 108/5/15
f 106/5/15 111/6/15 109/6/15
f 110/6/16 106/5/16 109/6/16
f 106/5/16 110/6/16 105/5/16
f 110/6/17 107/5/17 105/5/17
f 107/5/17 110/6/17 112/6/17

g fence-low




usemtl colormap

f 3/2/1 2/1/2 1/1/1
f 2/1/2 3/2/1 4/2/2
f 7/2/3 6/2/3 5/2/3
f 6/2/3 7/2/3 8/2/3
f 8/2/3 7/2/3 9/2/3
f 8/2/3 9/2/3 3/2/3
f 3/2/3 9/2/3 10/2/3
f 3/2/3 10/2/3 4/2/3
f 2/1/2 10/2/4 11/1/4
f 10/2/4 2/1/2 4/2/2
f 7/2/5 13/1/6 12/1/5
f 13/1/6 7/2/5 5/2/6
f 8/2/7 1/1/1 14/1/7
f 1/1/1 8/2/7 3/2/1
f 9/2/8 12/1/5 15/1/8
f 12/1/5 9/2/8 7/2/5
f 6/2/9 14/1/7 16/1/9
f 14/1/7 6/2/9 8/2/7
f 14/1/10 13/1/10 16/1/10
f 13/1/10 14/1/10 12/1/10
f 12/1/10 14/1/10 1/1/10
f 12/1/10 1/1/10 15/1/10
f 15/1/10 1/1/10 2/1/10
f 15/1/10 2/1/10 11/1/10
f 10/2/4 15/1/8 11/1/4
f 15/1/8 10/2/4 9/2/8
f 6/2/9 13/1/6 5/2/6
f 13/1/6 6/2/9 16/1/9
f 19/2/1 18/1/2 17/1/1
f 18/1/2 19/2/1 20/2/2
f 23/2/3 22/2/3 21/2/3
f 22/2/3 23/2/3 24/2/3
f 24/2/3 23/2/3 25/2/3
f 24/2/3 25/2/3 19/2/3
f 19/2/3 25/2/3 26/2/3
f 19/2/3 26/2/3 20/2/3
f 18/1/2 26/2/4 27/1/4
f 26/2/4 18/1/2 20/2/2
f 23/2/5 29/1/6 28/1/5
f 29/1/6 23/2/5 21/2/6
f 24/2/7 17/1/1 30/1/7
f 17/1/1 24/2/7 19/2/1
f 25/2/8 28/1/5 31/1/8
f 28/1/5 25/2/8 23/2/5
f 22/2/9 30/1/7 32/1/9
f 30/1/7 22/2/9 24/2/7
f 30/1/10 29/1/10 32/1/10
f 29/1/10 30/1/10 28/1/10
f 28/1/10 30/1/10 17/1/10
f 28/1/10 17/1/10 31/1/10
f 31/1/10 17/1/10 18/1/10
f 31/1/10 18/1/10 27/1/10
f 26/2/4 31/1/8 27/1/4
f 31/1/8 26/2/4 25/2/8
f 22/2/9 29/1/6 21/2/6
f 29/1/6 22/2/9 32/1/9
f 35/2/1 34/1/2 33/1/1
f 34/1/2 35/2/1 36/2/2
f 39/2/3 38/2/3 37/2/3
f 38/2/3 39/2/3 40/2/3
f 40/2/3 39/2/3 41/2/3
f 40/2/3 41/2/3 35/2/3
f 35/2/3 41/2/3 42/2/3
f 35/2/3 42/2/3 36/2/3
f 34/1/2 42/2/4 43/1/4
f 42/2/4 34/1/2 36/2/2
f 39/2/5 45/1/6 44/1/5
f 45/1/6 39/2/5 37/2/6
f 40/2/7 33/1/1 46/1/7
f 33/1/1 40/2/7 35/2/1
f 41/2/8 44/1/5 47/1/8
f 44/1/5 41/2/8 39/2/5
f 38/2/9 46/1/7 48/1/9
f 46/1/7 38/2/9 40/2/7
f 46/1/10 45/1/10 48/1/10
f 45/1/10 46/1/10 44/1/10
f 44/1/10 46/1/10 33/1/10
f 44/1/10 33/1/10 47/1/10
f 47/1/10 33/1/10 34/1/10
f 47/1/10 34/1/10 43/1/10
f 42/2/4 47/1/8 43/1/4
f 47/1/8 42/2/4 41/2/8
f 38/2/9 45/1/6 37/2/6
f 45/1/6 38/2/9 48/1/9
f 51/2/1 50/1/2 49/1/1
f 50/1/2 51/2/1 52/2/2
f 55/2/3 54/2/3 53/2/3
f 54/2/3 55/2/3 56/2/3
f 56/2/3 55/2/3 57/2/3
f 56/2/3 57/2/3 51/2/3
f 51/2/3 57/2/3 58/2/3
f 51/2/3 58/2/3 52/2/3
f 50/1/2 58/2/4 59/1/4
f 58/2/4 50/1/2 52/2/2
f 55/2/5 61/1/6 60/1/5
f 61/1/6 55/2/5 53/2/6
f 56/2/7 49/1/1 62/1/7
f 49/1/1 56/2/7 51/2/1
f 57/2/8 60/1/5 63/1/8
f 60/1/5 57/2/8 55/2/5
f 54/2/9 62/1/7 64/1/9
f 62/1/7 54/2/9 56/2/7
f 62/1/10 61/1/10 64/1/10
f 61/1/10 62/1/10 60/1/10
f 60/1/10 62/1/10 49/1/10
f 60/1/10 49/1/10 63/1/10
f 63/1/10 49/1/10 50/1/10
f 63/1/10 50/1/10 59/1/10
f 58/2/4 63/1/8 59/1/4
f 63/1/8 58/2/4 57/2/8
f 54/2/9 61/1/6 53/2/6
f 61/1/6 54/2/9 64/1/9
f 71/4/13 69/4/13 66/3/13
f 68/3/13 66/3/13 69/4/13
f 70/4/3 69/4/3 72/4/3
f 71/4/3 72/4/3 69/4/3
f 65/3/12 72/4/12 66/3/12
f 71/4/12 66/3/12 72/4/12
f 67/3/11 68/3/11 70/4/11
f 69/4/11 70/4/11 68/3/11
f 68/3/10 67/3/10 66/3/10
f 65/3/10 66/3/10 67/3/10
f 79/4/13 77/4/13 73/3/13
f 74/3/13 73/3/13 77/4/13
f 78/4/3 77/4/3 80/4/3
f 79/4/3 80/4/3 77/4/3
f 75/3/12 80/4/12 73/3/12
f 79/4/12 73/3/12 80/4/12
f 76/3/11 74/3/11 78/4/11
f 77/4/11 78/4/11 74/3/11
f 76/3/10 75/3/10 74/3/10
f 73/3/10 74/3/10 75/3/10
f 83/5/10 82/5/10 81/5/10
f 82/5/10 83/5/10 84/5/10
f 87/6/3 86/6/3 85/6/3
f 86/6/3 87/6/3 88/6/3
f 83/5/14 87/6/14 84/5/14
f 87/6/14 83/5/14 88/6/14
f 87/6/15 82/5/15 84/5/15
f 82/5/15 87/6/15 85/6/15
f 86/6/16 82/5/16 85/6/16
f 82/5/16 86/6/16 81/5/16
f 86/6/17 83/5/17 81/5/17
f 83/5/17 86/6/17 88/6/17
f 91/5/10 90/5/10 89/5/10
f 90/5/10 91/5/10 92/5/10
f 95/6/3 94/6/3 93/6/3
f 94/6/3 95/6/3 96/6/3
f 91/5/14 95/6/14 92/5/14
f 95/6/14 91/5/14 96/6/14
f 95/6/15 90/5/15 92/5/15
f 90/5/15 95/6/15 93/6/15
f 94/6/16 90/5/16 93/6/16
f 90/5/16 94/6/16 89/5/16
f 94/6/17 91/5/17 89/5/17
f 91/5/17 94/6/17 96/6/17
f 99/5/10 98/5/10 97/5/10
f 98/5/10 99/5/10 100/5/10
f 103/6/3 102/6/3 101/6/3
f 102/6/3 103/6/3 104/6/3
f 99/5/14 103/6/14 100/5/14
f 103/6/14 99/5/14 104/6/14
f 103/6/15 98/5/15 100/5/15
f 98/5/15 103/6/15 101/6/15
f 102/6/16 98/5/16 101/6/16
f 98/5/16 102/6/16 97/5/16
f 102/6/17 99/5/17 97/5/17
f 99/5/17 102/6/17 104/6/17
f 107/5/10 106/5/10 105/5/10
f 106/5/10 107/5/10 108/5/10
f 111/6/3 110/6/3 109/6/3
f 110/6/3 111/6/3 112/6/3
f 107/5/14 111/6/14 108/5/14
f 111/6/14 107/5/14 112/6/14
f 111/6/15 106/5/15 108/5/15
f 106/5/15 111/6/15 109/6/15
f 110/6/16 106/5/16 109/6/16
f 106/5/16 110/6/16 105/5/16
f 110/6/17 107/5/17 105/5/17
f 107/5/17 110/6/17 112/6/17

