# Created by Kenney (www.kenney.nl)

mtllib fence-1x4.mtl

g fence-1x4

v -0.8275 0 0.2375 1 1 1
v -0.8375 0 0.2275 1 1 1
v -0.8275 0.1 0.2375 1 1 1
v -0.8375 0.1 0.2275 1 1 1
v -0.7625 0.1 0.1725 1 1 1
v -0.7625 0.1 0.2275 1 1 1
v -0.7725 0.1 0.1625 1 1 1
v -0.7725 0.1 0.2375 1 1 1
v -0.8275 0.1 0.1625 1 1 1
v -0.8375 0.1 0.1725 1 1 1
v -0.8375 0 0.1725 1 1 1
v -0.7725 0 0.1625 1 1 1
v -0.7625 0 0.1725 1 1 1
v -0.7725 0 0.2375 1 1 1
v -0.8275 0 0.1625 1 1 1
v -0.7625 0 0.2275 1 1 1
v -0.4275 0 0.2375 1 1 1
v -0.4375 0 0.2275 1 1 1
v -0.4275 0.1 0.2375 1 1 1
v -0.4375 0.1 0.2275 1 1 1
v -0.3625 0.1 0.1725 1 1 1
v -0.3625 0.1 0.2275 1 1 1
v -0.3725 0.1 0.1625 1 1 1
v -0.3725 0.1 0.2375 1 1 1
v -0.4275 0.1 0.1625 1 1 1
v -0.4375 0.1 0.1725 1 1 1
v -0.4375 0 0.1725 1 1 1
v -0.3725 0 0.1625 1 1 1
v -0.3625 0 0.1725 1 1 1
v -0.3725 0 0.2375 1 1 1
v -0.4275 0 0.1625 1 1 1
v -0.3625 0 0.2275 1 1 1
v -0.0275 0 0.2375 1 1 1
v -0.0375 0 0.2275 1 1 1
v -0.0275 0.1 0.2375 1 1 1
v -0.0375 0.1 0.2275 1 1 1
v 0.0375 0.1 0.1725 1 1 1
v 0.0375 0.1 0.2275 1 1 1
v 0.0275 0.1 0.1625 1 1 1
v 0.0275 0.1 0.2375 1 1 1
v -0.0275 0.1 0.1625 1 1 1
v -0.0375 0.1 0.1725 1 1 1
v -0.0375 0 0.1725 1 1 1
v 0.0275 0 0.1625 1 1 1
v 0.0375 0 0.1725 1 1 1
v 0.0275 0 0.2375 1 1 1
v -0.0275 0 0.1625 1 1 1
v 0.0375 0 0.2275 1 1 1
v 0.7725 0 0.2375 1 1 1
v 0.7625 0 0.2275 1 1 1
v 0.7725 0.1 0.2375 1 1 1
v 0.7625 0.1 0.2275 1 1 1
v 0.8375 0.1 0.1725 1 1 1
v 0.8375 0.1 0.2275 1 1 1
v 0.8275 0.1 0.1625 1 1 1
v 0.8275 0.1 0.2375 1 1 1
v 0.7725 0.1 0.1625 1 1 1
v 0.7625 0.1 0.1725 1 1 1
v 0.7625 0 0.1725 1 1 1
v 0.8275 0 0.1625 1 1 1
v 0.8375 0 0.1725 1 1 1
v 0.8275 0 0.2375 1 1 1
v 0.7725 0 0.1625 1 1 1
v 0.8375 0 0.2275 1 1 1
v 0.3725 0 0.2375 1 1 1
v 0.3625 0 0.2275 1 1 1
v 0.3725 0.1 0.2375 1 1 1
v 0.3625 0.1 0.2275 1 1 1
v 0.4375 0.1 0.1725 1 1 1
v 0.4375 0.1 0.2275 1 1 1
v 0.4275 0.1 0.1625 1 1 1
v 0.4275 0.1 0.2375 1 1 1
v 0.3725 0.1 0.1625 1 1 1
v 0.3625 0.1 0.1725 1 1 1
v 0.3625 0 0.1725 1 1 1
v 0.4275 0 0.1625 1 1 1
v 0.4375 0 0.1725 1 1 1
v 0.4275 0 0.2375 1 1 1
v 0.3725 0 0.1625 1 1 1
v 0.4375 0 0.2275 1 1 1
v 1.490116E-08 0 0.2125 1 1 1
v -0.4 -3.253113E-14 0.2125 1 1 1
v 1.490116E-08 0 0.1875 1 1 1
v -0.4 -3.253113E-14 0.1875 1 1 1
v -0.4 0.25 0.1875 1 1 1
v 1.490116E-08 0.25 0.1875 1 1 1
v -0.4 0.25 0.2125 1 1 1
v 1.490116E-08 0.25 0.2125 1 1 1
v 0.4 3.253113E-14 0.2125 1 1 1
v -1.490116E-08 0 0.2125 1 1 1
v 0.4 3.253113E-14 0.1875 1 1 1
v -1.490116E-08 0 0.1875 1 1 1
v -1.490116E-08 0.25 0.1875 1 1 1
v 0.4 0.25 0.1875 1 1 1
v -1.490116E-08 0.25 0.2125 1 1 1
v 0.4 0.25 0.2125 1 1 1
v -0.4 3.253113E-14 0.2125 1 1 1
v -0.8000001 0 0.2125 1 1 1
v -0.4 3.253113E-14 0.1875 1 1 1
v -0.8000001 0 0.1875 1 1 1
v -0.8000001 0.25 0.1875 1 1 1
v -0.4 0.25 0.1875 1 1 1
v -0.8000001 0.25 0.2125 1 1 1
v -0.4 0.25 0.2125 1 1 1
v -0.8125 3.253113E-14 0.2 1 1 1
v -0.8125 0 -0.2 1 1 1
v -0.7875 3.253113E-14 0.2 1 1 1
v -0.7875 0 -0.2 1 1 1
v -0.7875 0.25 -0.2 1 1 1
v -0.7875 0.25 0.2 1 1 1
v -0.8125 0.25 -0.2 1 1 1
v -0.8125 0.25 0.2 1 1 1
v 0.7875 3.253113E-14 0.2 1 1 1
v 0.7875 0 -0.2 1 1 1
v 0.8125 3.253113E-14 0.2 1 1 1
v 0.8125 0 -0.2 1 1 1
v 0.8125 0.25 -0.2 1 1 1
v 0.8125 0.25 0.2 1 1 1
v 0.7875 0.25 -0.2 1 1 1
v 0.7875 0.25 0.2 1 1 1
v 0.8000001 3.253113E-14 0.2125 1 1 1
v 0.4 0 0.2125 1 1 1
v 0.8000001 3.253113E-14 0.1875 1 1 1
v 0.4 0 0.1875 1 1 1
v 0.4 0.25 0.1875 1 1 1
v 0.8000001 0.25 0.1875 1 1 1
v 0.4 0.25 0.2125 1 1 1
v 0.8000001 0.25 0.2125 1 1 1
v -0.775 0 0.225 1 1 1
v -0.775 0 0.175 1 1 1
v -0.825 0 0.225 1 1 1
v -0.825 0 0.175 1 1 1
v -0.775 0.27 0.175 1 1 1
v -0.775 0.27 0.225 1 1 1
v -0.825 0.27 0.175 1 1 1
v -0.825 0.27 0.225 1 1 1
v -0.375 0 0.225 1 1 1
v -0.375 0 0.175 1 1 1
v -0.425 0 0.225 1 1 1
v -0.425 0 0.175 1 1 1
v -0.375 0.27 0.175 1 1 1
v -0.375 0.27 0.225 1 1 1
v -0.425 0.27 0.175 1 1 1
v -0.425 0.27 0.225 1 1 1
v 0.025 0 0.225 1 1 1
v 0.025 0 0.175 1 1 1
v -0.025 0 0.225 1 1 1
v -0.025 0 0.175 1 1 1
v 0.025 0.27 0.175 1 1 1
v 0.025 0.27 0.225 1 1 1
v -0.025 0.27 0.175 1 1 1
v -0.025 0.27 0.225 1 1 1
v 0.825 0 0.225 1 1 1
v 0.825 0 0.175 1 1 1
v 0.775 0 0.225 1 1 1
v 0.775 0 0.175 1 1 1
v 0.825 0.27 0.175 1 1 1
v 0.825 0.27 0.225 1 1 1
v 0.775 0.27 0.175 1 1 1
v 0.775 0.27 0.225 1 1 1
v 0.425 0 0.225 1 1 1
v 0.425 0 0.175 1 1 1
v 0.375 0 0.225 1 1 1
v 0.375 0 0.175 1 1 1
v 0.425 0.27 0.175 1 1 1
v 0.425 0.27 0.225 1 1 1
v 0.375 0.27 0.175 1 1 1
v 0.375 0.27 0.225 1 1 1

vn -0.3826835 0 0.9238796
vn -0.9238796 0 0.3826835
vn 0 1 0
vn -0.9238796 0 -0.3826835
vn 0.3826835 0 -0.9238796
vn 0.9238796 0 -0.3826835
vn 0.3826835 0 0.9238796
vn -0.3826835 0 -0.9238796
vn 0.9238796 0 0.3826835
vn 0 -1 0
vn -1.192093E-07 0 -1
vn 1.192093E-07 0 1
vn 1 0 -7.136982E-14
vn -1 0 7.136982E-14
vn -7.136982E-14 0 -1
vn -1 0 0
vn 0 0 -1
vn 1 0 0
vn 0 0 1

vt 0.59375 0.395
vt 0.59375 0.475
vt 0.59375 0.275
vt 0.59375 0.355
vt 0.59375 0.325
vt 0.59375 0.425

usemtl colormap

f 3/2/1 2/1/2 1/1/1
f 2/1/2 3/2/1 4/2/2
f 7/2/3 6/2/3 5/2/3
f 6/2/3 7/2/3 8/2/3
f 8/2/3 7/2/3 9/2/3
f 8/2/3 9/2/3 3/2/3
f 3/2/3 9/2/3 10/2/3
f 3/2/3 10/2/3 4/2/3
f 2/1/2 10/2/4 11/1/4
f 10/2/4 2/1/2 4/2/2
f 7/2/5 13/1/6 12/1/5
f 13/1/6 7/2/5 5/2/6
f 8/2/7 1/1/1 14/1/7
f 1/1/1 8/2/7 3/2/1
f 9/2/8 12/1/5 15/1/8
f 12/1/5 9/2/8 7/2/5
f 6/2/9 14/1/7 16/1/9
f 14/1/7 6/2/9 8/2/7
f 14/1/10 13/1/10 16/1/10
f 13/1/10 14/1/10 12/1/10
f 12/1/10 14/1/10 1/1/10
f 12/1/10 1/1/10 15/1/10
f 15/1/10 1/1/10 2/1/10
f 15/1/10 2/1/10 11/1/10
f 10/2/4 15/1/8 11/1/4
f 15/1/8 10/2/4 9/2/8
f 6/2/9 13/1/6 5/2/6
f 13/1/6 6/2/9 16/1/9
f 19/2/1 18/1/2 17/1/1
f 18/1/2 19/2/1 20/2/2
f 23/2/3 22/2/3 21/2/3
f 22/2/3 23/2/3 24/2/3
f 24/2/3 23/2/3 25/2/3
f 24/2/3 25/2/3 19/2/3
f 19/2/3 25/2/3 26/2/3
f 19/2/3 26/2/3 20/2/3
f 18/1/2 26/2/4 27/1/4
f 26/2/4 18/1/2 20/2/2
f 23/2/5 29/1/6 28/1/5
f 29/1/6 23/2/5 21/2/6
f 24/2/7 17/1/1 30/1/7
f 17/1/1 24/2/7 19/2/1
f 25/2/8 28/1/5 31/1/8
f 28/1/5 25/2/8 23/2/5
f 22/2/9 30/1/7 32/1/9
f 30/1/7 22/2/9 24/2/7
f 30/1/10 29/1/10 32/1/10
f 29/1/10 30/1/10 28/1/10
f 28/1/10 30/1/10 17/1/10
f 28/1/10 17/1/10 31/1/10
f 31/1/10 17/1/10 18/1/10
f 31/1/10 18/1/10 27/1/10
f 26/2/4 31/1/8 27/1/4
f 31/1/8 26/2/4 25/2/8
f 22/2/9 29/1/6 21/2/6
f 29/1/6 22/2/9 32/1/9
f 35/2/1 34/1/2 33/1/1
f 34/1/2 35/2/1 36/2/2
f 39/2/3 38/2/3 37/2/3
f 38/2/3 39/2/3 40/2/3
f 40/2/3 39/2/3 41/2/3
f 40/2/3 41/2/3 35/2/3
f 35/2/3 41/2/3 42/2/3
f 35/2/3 42/2/3 36/2/3
f 34/1/2 42/2/4 43/1/4
f 42/2/4 34/1/2 36/2/2
f 39/2/5 45/1/6 44/1/5
f 45/1/6 39/2/5 37/2/6
f 40/2/7 33/1/1 46/1/7
f 33/1/1 40/2/7 35/2/1
f 41/2/8 44/1/5 47/1/8
f 44/1/5 41/2/8 39/2/5
f 38/2/9 46/1/7 48/1/9
f 46/1/7 38/2/9 40/2/7
f 46/1/10 45/1/10 48/1/10
f 45/1/10 46/1/10 44/1/10
f 44/1/10 46/1/10 33/1/10
f 44/1/10 33/1/10 47/1/10
f 47/1/10 33/1/10 34/1/10
f 47/1/10 34/1/10 43/1/10
f 42/2/4 47/1/8 43/1/4
f 47/1/8 42/2/4 41/2/8
f 38/2/9 45/1/6 37/2/6
f 45/1/6 38/2/9 48/1/9
f 51/2/1 50/1/2 49/1/1
f 50/1/2 51/2/1 52/2/2
f 55/2/3 54/2/3 53/2/3
f 54/2/3 55/2/3 56/2/3
f 56/2/3 55/2/3 57/2/3
f 56/2/3 57/2/3 51/2/3
f 51/2/3 57/2/3 58/2/3
f 51/2/3 58/2/3 52/2/3
f 50/1/2 58/2/4 59/1/4
f 58/2/4 50/1/2 52/2/2
f 55/2/5 61/1/6 60/1/5
f 61/1/6 55/2/5 53/2/6
f 56/2/7 49/1/1 62/1/7
f 49/1/1 56/2/7 51/2/1
f 57/2/8 60/1/5 63/1/8
f 60/1/5 57/2/8 55/2/5
f 54/2/9 62/1/7 64/1/9
f 62/1/7 54/2/9 56/2/7
f 62/1/10 61/1/10 64/1/10
f 61/1/10 62/1/10 60/1/10
f 60/1/10 62/1/10 49/1/10
f 60/1/10 49/1/10 63/1/10
f 63/1/10 49/1/10 50/1/10
f 63/1/10 50/1/10 59/1/10
f 58/2/4 63/1/8 59/1/4
f 63/1/8 58/2/4 57/2/8
f 54/2/9 61/1/6 53/2/6
f 61/1/6 54/2/9 64/1/9
f 67/2/1 66/1/2 65/1/1
f 66/1/2 67/2/1 68/2/2
f 71/2/3 70/2/3 69/2/3
f 70/2/3 71/2/3 72/2/3
f 72/2/3 71/2/3 73/2/3
f 72/2/3 73/2/3 67/2/3
f 67/2/3 73/2/3 74/2/3
f 67/2/3 74/2/3 68/2/3
f 66/1/2 74/2/4 75/1/4
f 74/2/4 66/1/2 68/2/2
f 71/2/5 77/1/6 76/1/5
f 77/1/6 71/2/5 69/2/6
f 72/2/7 65/1/1 78/1/7
f 65/1/1 72/2/7 67/2/1
f 73/2/8 76/1/5 79/1/8
f 76/1/5 73/2/8 71/2/5
f 70/2/9 78/1/7 80/1/9
f 78/1/7 70/2/9 72/2/7
f 78/1/10 77/1/10 80/1/10
f 77/1/10 78/1/10 76/1/10
f 76/1/10 78/1/10 65/1/10
f 76/1/10 65/1/10 79/1/10
f 79/1/10 65/1/10 66/1/10
f 79/1/10 66/1/10 75/1/10
f 74/2/4 79/1/8 75/1/4
f 79/1/8 74/2/4 73/2/8
f 70/2/9 77/1/6 69/2/6
f 77/1/6 70/2/9 80/1/9
f 85/4/3 87/4/3 86/4/3
f 88/4/3 86/4/3 87/4/3
f 81/3/12 88/4/12 82/3/12
f 87/4/12 82/3/12 88/4/12
f 83/3/11 84/3/11 86/4/11
f 85/4/11 86/4/11 84/3/11
f 84/3/10 83/3/10 82/3/10
f 81/3/10 82/3/10 83/3/10
f 93/4/3 95/4/3 94/4/3
f 96/4/3 94/4/3 95/4/3
f 89/3/12 96/4/12 90/3/12
f 95/4/12 90/3/12 96/4/12
f 91/3/11 92/3/11 94/4/11
f 93/4/11 94/4/11 92/3/11
f 92/3/10 91/3/10 90/3/10
f 89/3/10 90/3/10 91/3/10
f 101/4/3 103/4/3 102/4/3
f 104/4/3 102/4/3 103/4/3
f 97/3/12 104/4/12 98/3/12
f 103/4/12 98/3/12 104/4/12
f 99/3/11 100/3/11 102/4/11
f 101/4/11 102/4/11 100/3/11
f 100/3/10 99/3/10 98/3/10
f 97/3/10 98/3/10 99/3/10
f 111/4/15 109/4/15 106/3/15
f 108/3/15 106/3/15 109/4/15
f 109/4/3 111/4/3 110/4/3
f 112/4/3 110/4/3 111/4/3
f 105/3/14 112/4/14 106/3/14
f 111/4/14 106/3/14 112/4/14
f 107/3/13 108/3/13 110/4/13
f 109/4/13 110/4/13 108/3/13
f 108/3/10 107/3/10 106/3/10
f 105/3/10 106/3/10 107/3/10
f 119/4/15 117/4/15 114/3/15
f 116/3/15 114/3/15 117/4/15
f 117/4/3 119/4/3 118/4/3
f 120/4/3 118/4/3 119/4/3
f 113/3/14 120/4/14 114/3/14
f 119/4/14 114/3/14 120/4/14
f 115/3/13 116/3/13 118/4/13
f 117/4/13 118/4/13 116/3/13
f 116/3/10 115/3/10 114/3/10
f 113/3/10 114/3/10 115/3/10
f 125/4/3 127/4/3 126/4/3
f 128/4/3 126/4/3 127/4/3
f 121/3/12 128/4/12 122/3/12
f 127/4/12 122/3/12 128/4/12
f 123/3/11 124/3/11 126/4/11
f 125/4/11 126/4/11 124/3/11
f 124/3/10 123/3/10 122/3/10
f 121/3/10 122/3/10 123/3/10
f 131/5/10 130/5/10 129/5/10
f 130/5/10 131/5/10 132/5/10
f 135/6/3 134/6/3 133/6/3
f 134/6/3 135/6/3 136/6/3
f 131/5/16 135/6/16 132/5/16
f 135/6/16 131/5/16 136/6/16
f 135/6/17 130/5/17 132/5/17
f 130/5/17 135/6/17 133/6/17
f 134/6/18 130/5/18 133/6/18
f 130/5/18 134/6/18 129/5/18
f 134/6/19 131/5/19 129/5/19
f 131/5/19 134/6/19 136/6/19
f 139/5/10 138/5/10 137/5/10
f 138/5/10 139/5/10 140/5/10
f 143/6/3 142/6/3 141/6/3
f 142/6/3 143/6/3 144/6/3
f 139/5/16 143/6/16 140/5/16
f 143/6/16 139/5/16 144/6/16
f 143/6/17 138/5/17 140/5/17
f 138/5/17 143/6/17 141/6/17
f 142/6/18 138/5/18 141/6/18
f 138/5/18 142/6/18 137/5/18
f 142/6/19 139/5/19 137/5/19
f 139/5/19 142/6/19 144/6/19
f 147/5/10 146/5/10 145/5/10
f 146/5/10 147/5/10 148/5/10
f 151/6/3 150/6/3 149/6/3
f 150/6/3 151/6/3 152/6/3
f 147/5/16 151/6/16 148/5/16
f 151/6/16 147/5/16 152/6/16
f 151/6/17 146/5/17 148/5/17
f 146/5/17 151/6/17 149/6/17
f 150/6/18 146/5/18 149/6/18
f 146/5/18 150/6/18 145/5/18
f 150/6/19 147/5/19 145/5/19
f 147/5/19 150/6/19 152/6/19
f 155/5/10 154/5/10 153/5/10
f 154/5/10 155/5/10 156/5/10
f 159/6/3 158/6/3 157/6/3
f 158/6/3 159/6/3 160/6/3
f 155/5/16 159/6/16 156/5/16
f 159/6/16 155/5/16 160/6/16
f 159/6/17 154/5/17 156/5/17
f 154/5/17 159/6/17 157/6/17
f 158/6/18 154/5/18 157/6/18
f 154/5/18 158/6/18 153/5/18
f 158/6/19 155/5/19 153/5/19
f 155/5/19 158/6/19 160/6/19
f 163/5/10 162/5/10 161/5/10
f 162/5/10 163/5/10 164/5/10
f 167/6/3 166/6/3 165/6/3
f 166/6/3 167/6/3 168/6/3
f 163/5/16 167/6/16 164/5/16
f 167/6/16 163/5/16 168/6/16
f 167/6/17 162/5/17 164/5/17
f 162/5/17 167/6/17 165/6/17
f 166/6/18 162/5/18 165/6/18
f 162/5/18 166/6/18 161/5/18
f 166/6/19 163/5/19 161/5/19
f 163/5/19 166/6/19 168/6/19

g fence-1x4




usemtl colormap

f 3/2/1 2/1/2 1/1/1
f 2/1/2 3/2/1 4/2/2
f 7/2/3 6/2/3 5/2/3
f 6/2/3 7/2/3 8/2/3
f 8/2/3 7/2/3 9/2/3
f 8/2/3 9/2/3 3/2/3
f 3/2/3 9/2/3 10/2/3
f 3/2/3 10/2/3 4/2/3
f 2/1/2 10/2/4 11/1/4
f 10/2/4 2/1/2 4/2/2
f 7/2/5 13/1/6 12/1/5
f 13/1/6 7/2/5 5/2/6
f 8/2/7 1/1/1 14/1/7
f 1/1/1 8/2/7 3/2/1
f 9/2/8 12/1/5 15/1/8
f 12/1/5 9/2/8 7/2/5
f 6/2/9 14/1/7 16/1/9
f 14/1/7 6/2/9 8/2/7
f 14/1/10 13/1/10 16/1/10
f 13/1/10 14/1/10 12/1/10
f 12/1/10 14/1/10 1/1/10
f 12/1/10 1/1/10 15/1/10
f 15/1/10 1/1/10 2/1/10
f 15/1/10 2/1/10 11/1/10
f 10/2/4 15/1/8 11/1/4
f 15/1/8 10/2/4 9/2/8
f 6/2/9 13/1/6 5/2/6
f 13/1/6 6/2/9 16/1/9
f 19/2/1 18/1/2 17/1/1
f 18/1/2 19/2/1 20/2/2
f 23/2/3 22/2/3 21/2/3
f 22/2/3 23/2/3 24/2/3
f 24/2/3 23/2/3 25/2/3
f 24/2/3 25/2/3 19/2/3
f 19/2/3 25/2/3 26/2/3
f 19/2/3 26/2/3 20/2/3
f 18/1/2 26/2/4 27/1/4
f 26/2/4 18/1/2 20/2/2
f 23/2/5 29/1/6 28/1/5
f 29/1/6 23/2/5 21/2/6
f 24/2/7 17/1/1 30/1/7
f 17/1/1 24/2/7 19/2/1
f 25/2/8 28/1/5 31/1/8
f 28/1/5 25/2/8 23/2/5
f 22/2/9 30/1/7 32/1/9
f 30/1/7 22/2/9 24/2/7
f 30/1/10 29/1/10 32/1/10
f 29/1/10 30/1/10 28/1/10
f 28/1/10 30/1/10 17/1/10
f 28/1/10 17/1/10 31/1/10
f 31/1/10 17/1/10 18/1/10
f 31/1/10 18/1/10 27/1/10
f 26/2/4 31/1/8 27/1/4
f 31/1/8 26/2/4 25/2/8
f 22/2/9 29/1/6 21/2/6
f 29/1/6 22/2/9 32/1/9
f 35/2/1 34/1/2 33/1/1
f 34/1/2 35/2/1 36/2/2
f 39/2/3 38/2/3 37/2/3
f 38/2/3 39/2/3 40/2/3
f 40/2/3 39/2/3 41/2/3
f 40/2/3 41/2/3 35/2/3
f 35/2/3 41/2/3 42/2/3
f 35/2/3 42/2/3 36/2/3
f 34/1/2 42/2/4 43/1/4
f 42/2/4 34/1/2 36/2/2
f 39/2/5 45/1/6 44/1/5
f 45/1/6 39/2/5 37/2/6
f 40/2/7 33/1/1 46/1/7
f 33/1/1 40/2/7 35/2/1
f 41/2/8 44/1/5 47/1/8
f 44/1/5 41/2/8 39/2/5
f 38/2/9 46/1/7 48/1/9
f 46/1/7 38/2/9 40/2/7
f 46/1/10 45/1/10 48/1/10
f 45/1/10 46/1/10 44/1/10
f 44/1/10 46/1/10 33/1/10
f 44/1/10 33/1/10 47/1/10
f 47/1/10 33/1/10 34/1/10
f 47/1/10 34/1/10 43/1/10
f 42/2/4 47/1/8 43/1/4
f 47/1/8 42/2/4 41/2/8
f 38/2/9 45/1/6 37/2/6
f 45/1/6 38/2/9 48/1/9
f 51/2/1 50/1/2 49/1/1
f 50/1/2 51/2/1 52/2/2
f 55/2/3 54/2/3 53/2/3
f 54/2/3 55/2/3 56/2/3
f 56/2/3 55/2/3 57/2/3
f 56/2/3 57/2/3 51/2/3
f 51/2/3 57/2/3 58/2/3
f 51/2/3 58/2/3 52/2/3
f 50/1/2 58/2/4 59/1/4
f 58/2/4 50/1/2 52/2/2
f 55/2/5 61/1/6 60/1/5
f 61/1/6 55/2/5 53/2/6
f 56/2/7 49/1/1 62/1/7
f 49/1/1 56/2/7 51/2/1
f 57/2/8 60/1/5 63/1/8
f 60/1/5 57/2/8 55/2/5
f 54/2/9 62/1/7 64/1/9
f 62/1/7 54/2/9 56/2/7
f 62/1/10 61/1/10 64/1/10
f 61/1/10 62/1/10 60/1/10
f 60/1/10 62/1/10 49/1/10
f 60/1/10 49/1/10 63/1/10
f 63/1/10 49/1/10 50/1/10
f 63/1/10 50/1/10 59/1/10
f 58/2/4 63/1/8 59/1/4
f 63/1/8 58/2/4 57/2/8
f 54/2/9 61/1/6 53/2/6
f 61/1/6 54/2/9 64/1/9
f 67/2/1 66/1/2 65/1/1
f 66/1/2 67/2/1 68/2/2
f 71/2/3 70/2/3 69/2/3
f 70/2/3 71/2/3 72/2/3
f 72/2/3 71/2/3 73/2/3
f 72/2/3 73/2/3 67/2/3
f 67/2/3 73/2/3 74/2/3
f 67/2/3 74/2/3 68/2/3
f 66/1/2 74/2/4 75/1/4
f 74/2/4 66/1/2 68/2/2
f 71/2/5 77/1/6 76/1/5
f 77/1/6 71/2/5 69/2/6
f 72/2/7 65/1/1 78/1/7
f 65/1/1 72/2/7 67/2/1
f 73/2/8 76/1/5 79/1/8
f 76/1/5 73/2/8 71/2/5
f 70/2/9 78/1/7 80/1/9
f 78/1/7 70/2/9 72/2/7
f 78/1/10 77/1/10 80/1/10
f 77/1/10 78/1/10 76/1/10
f 76/1/10 78/1/10 65/1/10
f 76/1/10 65/1/10 79/1/10
f 79/1/10 65/1/10 66/1/10
f 79/1/10 66/1/10 75/1/10
f 74/2/4 79/1/8 75/1/4
f 79/1/8 74/2/4 73/2/8
f 70/2/9 77/1/6 69/2/6
f 77/1/6 70/2/9 80/1/9
f 85/4/3 87/4/3 86/4/3
f 88/4/3 86/4/3 87/4/3
f 81/3/12 88/4/12 82/3/12
f 87/4/12 82/3/12 88/4/12
f 83/3/11 84/3/11 86/4/11
f 85/4/11 86/4/11 84/3/11
f 84/3/10 83/3/10 82/3/10
f 81/3/10 82/3/10 83/3/10
f 93/4/3 95/4/3 94/4/3
f 96/4/3 94/4/3 95/4/3
f 89/3/12 96/4/12 90/3/12
f 95/4/12 90/3/12 96/4/12
f 91/3/11 92/3/11 94/4/11
f 93/4/11 94/4/11 92/3/11
f 92/3/10 91/3/10 90/3/10
f 89/3/10 90/3/10 91/3/10
f 101/4/3 103/4/3 102/4/3
f 104/4/3 102/4/3 103/4/3
f 97/3/12 104/4/12 98/3/12
f 103/4/12 98/3/12 104/4/12
f 99/3/11 100/3/11 102/4/11
f 101/4/11 102/4/11 100/3/11
f 100/3/10 99/3/10 98/3/10
f 97/3/10 98/3/10 99/3/10
f 111/4/15 109/4/15 106/3/15
f 108/3/15 106/3/15 109/4/15
f 109/4/3 111/4/3 110/4/3
f 112/4/3 110/4/3 111/4/3
f 105/3/14 112/4/14 106/3/14
f 111/4/14 106/3/14 112/4/14
f 107/3/13 108/3/13 110/4/13
f 109/4/13 110/4/13 108/3/13
f 108/3/10 107/3/10 106/3/10
f 105/3/10 106/3/10 107/3/10
f 119/4/15 117/4/15 114/3/15
f 116/3/15 114/3/15 117/4/15
f 117/4/3 119/4/3 118/4/3
f 120/4/3 118/4/3 119/4/3
f 113/3/14 120/4/14 114/3/14
f 119/4/14 114/3/14 120/4/14
f 115/3/13 116/3/13 118/4/13
f 117/4/13 118/4/13 116/3/13
f 116/3/10 115/3/10 114/3/10
f 113/3/10 114/3/10 115/3/10
f 125/4/3 127/4/3 126/4/3
f 128/4/3 126/4/3 127/4/3
f 121/3/12 128/4/12 122/3/12
f 127/4/12 122/3/12 128/4/12
f 123/3/11 124/3/11 126/4/11
f 125/4/11 126/4/11 124/3/11
f 124/3/10 123/3/10 122/3/10
f 121/3/10 122/3/10 123/3/10
f 131/5/10 130/5/10 129/5/10
f 130/5/10 131/5/10 132/5/10
f 135/6/3 134/6/3 133/6/3
f 134/6/3 135/6/3 136/6/3
f 131/5/16 135/6/16 132/5/16
f 135/6/16 131/5/16 136/6/16
f 135/6/17 130/5/17 132/5/17
f 130/5/17 135/6/17 133/6/17
f 134/6/18 130/5/18 133/6/18
f 130/5/18 134/6/18 129/5/18
f 134/6/19 131/5/19 129/5/19
f 131/5/19 134/6/19 136/6/19
f 139/5/10 138/5/10 137/5/10
f 138/5/10 139/5/10 140/5/10
f 143/6/3 142/6/3 141/6/3
f 142/6/3 143/6/3 144/6/3
f 139/5/16 143/6/16 140/5/16
f 143/6/16 139/5/16 144/6/16
f 143/6/17 138/5/17 140/5/17
f 138/5/17 143/6/17 141/6/17
f 142/6/18 138/5/18 141/6/18
f 138/5/18 142/6/18 137/5/18
f 142/6/19 139/5/19 137/5/19
f 139/5/19 142/6/19 144/6/19
f 147/5/10 146/5/10 145/5/10
f 146/5/10 147/5/10 148/5/10
f 151/6/3 150/6/3 149/6/3
f 150/6/3 151/6/3 152/6/3
f 147/5/16 151/6/16 148/5/16
f 151/6/16 147/5/16 152/6/16
f 151/6/17 146/5/17 148/5/17
f 146/5/17 151/6/17 149/6/17
f 150/6/18 146/5/18 149/6/18
f 146/5/18 150/6/18 145/5/18
f 150/6/19 147/5/19 145/5/19
f 147/5/19 150/6/19 152/6/19
f 155/5/10 154/5/10 153/5/10
f 154/5/10 155/5/10 156/5/10
f 159/6/3 158/6/3 157/6/3
f 158/6/3 159/6/3 160/6/3
f 155/5/16 159/6/16 156/5/16
f 159/6/16 155/5/16 160/6/16
f 159/6/17 154/5/17 156/5/17
f 154/5/17 159/6/17 157/6/17
f 158/6/18 154/5/18 157/6/18
f 154/5/18 158/6/18 153/5/18
f 158/6/19 155/5/19 153/5/19
f 155/5/19 158/6/19 160/6/19
f 163/5/10 162/5/10 161/5/10
f 162/5/10 163/5/10 164/5/10
f 167/6/3 166/6/3 165/6/3
f 166/6/3 167/6/3 168/6/3
f 163/5/16 167/6/16 164/5/16
f 167/6/16 163/5/16 168/6/16
f 167/6/17 162/5/17 164/5/17
f 162/5/17 167/6/17 165/6/17
f 166/6/18 162/5/18 165/6/18
f 162/5/18 166/6/18 161/5/18
f 166/6/19 163/5/19 161/5/19
f 163/5/19 166/6/19 168/6/19

