# Created by Kenney (www.kenney.nl)

mtllib fence.mtl

g fence

v -0.2275 3.253113E-14 0.0375 1 1 1
v -0.2375 3.253113E-14 0.0275 1 1 1
v -0.2275 0.1 0.0375 1 1 1
v -0.2375 0.1 0.0275 1 1 1
v -0.1625 0.1 -0.0275 1 1 1
v -0.1625 0.1 0.0275 1 1 1
v -0.1725 0.1 -0.0375 1 1 1
v -0.1725 0.1 0.0375 1 1 1
v -0.2275 0.1 -0.0375 1 1 1
v -0.2375 0.1 -0.0275 1 1 1
v -0.2375 3.253113E-14 -0.0275 1 1 1
v -0.1725 3.253113E-14 -0.0375 1 1 1
v -0.1625 3.253113E-14 -0.0275 1 1 1
v -0.1725 3.253113E-14 0.0375 1 1 1
v -0.2275 3.253113E-14 -0.0375 1 1 1
v -0.1625 3.253113E-14 0.0275 1 1 1
v 0.1725 3.253113E-14 0.0375 1 1 1
v 0.1625 3.253113E-14 0.0275 1 1 1
v 0.1725 0.1 0.0375 1 1 1
v 0.1625 0.1 0.0275 1 1 1
v 0.2375 0.1 -0.0275 1 1 1
v 0.2375 0.1 0.0275 1 1 1
v 0.2275 0.1 -0.0375 1 1 1
v 0.2275 0.1 0.0375 1 1 1
v 0.1725 0.1 -0.0375 1 1 1
v 0.1625 0.1 -0.0275 1 1 1
v 0.1625 3.253113E-14 -0.0275 1 1 1
v 0.2275 3.253113E-14 -0.0375 1 1 1
v 0.2375 3.253113E-14 -0.0275 1 1 1
v 0.2275 3.253113E-14 0.0375 1 1 1
v 0.1725 3.253113E-14 -0.0375 1 1 1
v 0.2375 3.253113E-14 0.0275 1 1 1
v 0.2 3.253113E-14 0.01249998 1 1 1
v -0.2 0 0.01250003 1 1 1
v 0.2 3.253113E-14 -0.01250003 1 1 1
v -0.2 0 -0.01249998 1 1 1
v -0.2 0.25 -0.01249998 1 1 1
v 0.2 0.25 -0.01250003 1 1 1
v -0.2 0.25 0.01250003 1 1 1
v 0.2 0.25 0.01249998 1 1 1
v 0.225 3.253113E-14 0.025 1 1 1
v 0.225 3.253113E-14 -0.025 1 1 1
v 0.175 3.253113E-14 0.025 1 1 1
v 0.175 3.253113E-14 -0.025 1 1 1
v 0.225 0.27 -0.025 1 1 1
v 0.225 0.27 0.025 1 1 1
v 0.175 0.27 -0.025 1 1 1
v 0.175 0.27 0.025 1 1 1
v -0.175 3.253113E-14 0.025 1 1 1
v -0.175 3.253113E-14 -0.025 1 1 1
v -0.225 3.253113E-14 0.025 1 1 1
v -0.225 3.253113E-14 -0.025 1 1 1
v -0.175 0.27 -0.025 1 1 1
v -0.175 0.27 0.025 1 1 1
v -0.225 0.27 -0.025 1 1 1
v -0.225 0.27 0.025 1 1 1

vn -0.3826835 0 0.9238796
vn -0.9238796 0 0.3826835
vn 0 1 0
vn -0.9238796 0 -0.3826835
vn 0.3826835 0 -0.9238796
vn 0.9238796 0 -0.3826835
vn 0.3826835 0 0.9238796
vn -0.3826835 0 -0.9238796
vn 0.9238796 0 0.3826835
vn 0 -1 0
vn -1.192093E-07 0 -1
vn 1.192093E-07 0 1
vn -1 0 0
vn 0 0 -1
vn 1 0 0
vn 0 0 1

vt 0.59375 0.395
vt 0.59375 0.475
vt 0.59375 0.275
vt 0.59375 0.355
vt 0.59375 0.325
vt 0.59375 0.425

usemtl colormap

f 3/2/1 2/1/2 1/1/1
f 2/1/2 3/2/1 4/2/2
f 7/2/3 6/2/3 5/2/3
f 6/2/3 7/2/3 8/2/3
f 8/2/3 7/2/3 9/2/3
f 8/2/3 9/2/3 3/2/3
f 3/2/3 9/2/3 10/2/3
f 3/2/3 10/2/3 4/2/3
f 2/1/2 10/2/4 11/1/4
f 10/2/4 2/1/2 4/2/2
f 7/2/5 13/1/6 12/1/5
f 13/1/6 7/2/5 5/2/6
f 8/2/7 1/1/1 14/1/7
f 1/1/1 8/2/7 3/2/1
f 9/2/8 12/1/5 15/1/8
f 12/1/5 9/2/8 7/2/5
f 6/2/9 14/1/7 16/1/9
f 14/1/7 6/2/9 8/2/7
f 14/1/10 13/1/10 16/1/10
f 13/1/10 14/1/10 12/1/10
f 12/1/10 14/1/10 1/1/10
f 12/1/10 1/1/10 15/1/10
f 15/1/10 1/1/10 2/1/10
f 15/1/10 2/1/10 11/1/10
f 10/2/4 15/1/8 11/1/4
f 15/1/8 10/2/4 9/2/8
f 6/2/9 13/1/6 5/2/6
f 13/1/6 6/2/9 16/1/9
f 19/2/1 18/1/2 17/1/1
f 18/1/2 19/2/1 20/2/2
f 23/2/3 22/2/3 21/2/3
f 22/2/3 23/2/3 24/2/3
f 24/2/3 23/2/3 25/2/3
f 24/2/3 25/2/3 19/2/3
f 19/2/3 25/2/3 26/2/3
f 19/2/3 26/2/3 20/2/3
f 18/1/2 26/2/4 27/1/4
f 26/2/4 18/1/2 20/2/2
f 23/2/5 29/1/6 28/1/5
f 29/1/6 23/2/5 21/2/6
f 24/2/7 17/1/1 30/1/7
f 17/1/1 24/2/7 19/2/1
f 25/2/8 28/1/5 31/1/8
f 28/1/5 25/2/8 23/2/5
f 22/2/9 30/1/7 32/1/9
f 30/1/7 22/2/9 24/2/7
f 30/1/10 29/1/10 32/1/10
f 29/1/10 30/1/10 28/1/10
f 28/1/10 30/1/10 17/1/10
f 28/1/10 17/1/10 31/1/10
f 31/1/10 17/1/10 18/1/10
f 31/1/10 18/1/10 27/1/10
f 26/2/4 31/1/8 27/1/4
f 31/1/8 26/2/4 25/2/8
f 22/2/9 29/1/6 21/2/6
f 29/1/6 22/2/9 32/1/9
f 37/4/3 39/4/3 38/4/3
f 40/4/3 38/4/3 39/4/3
f 33/3/12 40/4/12 34/3/12
f 39/4/12 34/3/12 40/4/12
f 35/3/11 36/3/11 38/4/11
f 37/4/11 38/4/11 36/3/11
f 36/3/10 35/3/10 34/3/10
f 33/3/10 34/3/10 35/3/10
f 43/5/10 42/5/10 41/5/10
f 42/5/10 43/5/10 44/5/10
f 47/6/3 46/6/3 45/6/3
f 46/6/3 47/6/3 48/6/3
f 43/5/13 47/6/13 44/5/13
f 47/6/13 43/5/13 48/6/13
f 47/6/14 42/5/14 44/5/14
f 42/5/14 47/6/14 45/6/14
f 46/6/15 42/5/15 45/6/15
f 42/5/15 46/6/15 41/5/15
f 46/6/16 43/5/16 41/5/16
f 43/5/16 46/6/16 48/6/16
f 51/5/10 50/5/10 49/5/10
f 50/5/10 51/5/10 52/5/10
f 55/6/3 54/6/3 53/6/3
f 54/6/3 55/6/3 56/6/3
f 51/5/13 55/6/13 52/5/13
f 55/6/13 51/5/13 56/6/13
f 55/6/14 50/5/14 52/5/14
f 50/5/14 55/6/14 53/6/14
f 54/6/15 50/5/15 53/6/15
f 50/5/15 54/6/15 49/5/15
f 54/6/16 51/5/16 49/5/16
f 51/5/16 54/6/16 56/6/16

g fence




usemtl colormap

f 3/2/1 2/1/2 1/1/1
f 2/1/2 3/2/1 4/2/2
f 7/2/3 6/2/3 5/2/3
f 6/2/3 7/2/3 8/2/3
f 8/2/3 7/2/3 9/2/3
f 8/2/3 9/2/3 3/2/3
f 3/2/3 9/2/3 10/2/3
f 3/2/3 10/2/3 4/2/3
f 2/1/2 10/2/4 11/1/4
f 10/2/4 2/1/2 4/2/2
f 7/2/5 13/1/6 12/1/5
f 13/1/6 7/2/5 5/2/6
f 8/2/7 1/1/1 14/1/7
f 1/1/1 8/2/7 3/2/1
f 9/2/8 12/1/5 15/1/8
f 12/1/5 9/2/8 7/2/5
f 6/2/9 14/1/7 16/1/9
f 14/1/7 6/2/9 8/2/7
f 14/1/10 13/1/10 16/1/10
f 13/1/10 14/1/10 12/1/10
f 12/1/10 14/1/10 1/1/10
f 12/1/10 1/1/10 15/1/10
f 15/1/10 1/1/10 2/1/10
f 15/1/10 2/1/10 11/1/10
f 10/2/4 15/1/8 11/1/4
f 15/1/8 10/2/4 9/2/8
f 6/2/9 13/1/6 5/2/6
f 13/1/6 6/2/9 16/1/9
f 19/2/1 18/1/2 17/1/1
f 18/1/2 19/2/1 20/2/2
f 23/2/3 22/2/3 21/2/3
f 22/2/3 23/2/3 24/2/3
f 24/2/3 23/2/3 25/2/3
f 24/2/3 25/2/3 19/2/3
f 19/2/3 25/2/3 26/2/3
f 19/2/3 26/2/3 20/2/3
f 18/1/2 26/2/4 27/1/4
f 26/2/4 18/1/2 20/2/2
f 23/2/5 29/1/6 28/1/5
f 29/1/6 23/2/5 21/2/6
f 24/2/7 17/1/1 30/1/7
f 17/1/1 24/2/7 19/2/1
f 25/2/8 28/1/5 31/1/8
f 28/1/5 25/2/8 23/2/5
f 22/2/9 30/1/7 32/1/9
f 30/1/7 22/2/9 24/2/7
f 30/1/10 29/1/10 32/1/10
f 29/1/10 30/1/10 28/1/10
f 28/1/10 30/1/10 17/1/10
f 28/1/10 17/1/10 31/1/10
f 31/1/10 17/1/10 18/1/10
f 31/1/10 18/1/10 27/1/10
f 26/2/4 31/1/8 27/1/4
f 31/1/8 26/2/4 25/2/8
f 22/2/9 29/1/6 21/2/6
f 29/1/6 22/2/9 32/1/9
f 37/4/3 39/4/3 38/4/3
f 40/4/3 38/4/3 39/4/3
f 33/3/12 40/4/12 34/3/12
f 39/4/12 34/3/12 40/4/12
f 35/3/11 36/3/11 38/4/11
f 37/4/11 38/4/11 36/3/11
f 36/3/10 35/3/10 34/3/10
f 33/3/10 34/3/10 35/3/10
f 43/5/10 42/5/10 41/5/10
f 42/5/10 43/5/10 44/5/10
f 47/6/3 46/6/3 45/6/3
f 46/6/3 47/6/3 48/6/3
f 43/5/13 47/6/13 44/5/13
f 47/6/13 43/5/13 48/6/13
f 47/6/14 42/5/14 44/5/14
f 42/5/14 47/6/14 45/6/14
f 46/6/15 42/5/15 45/6/15
f 42/5/15 46/6/15 41/5/15
f 46/6/16 43/5/16 41/5/16
f 43/5/16 46/6/16 48/6/16
f 51/5/10 50/5/10 49/5/10
f 50/5/10 51/5/10 52/5/10
f 55/6/3 54/6/3 53/6/3
f 54/6/3 55/6/3 56/6/3
f 51/5/13 55/6/13 52/5/13
f 55/6/13 51/5/13 56/6/13
f 55/6/14 50/5/14 52/5/14
f 50/5/14 55/6/14 53/6/14
f 54/6/15 50/5/15 53/6/15
f 50/5/15 54/6/15 49/5/15
f 54/6/16 51/5/16 49/5/16
f 51/5/16 54/6/16 56/6/16

