# Created by Kenney (www.kenney.nl)

mtllib path-stones-long.mtl

g path-stones-long

v -0.07 5.179068E-19 -0.1 1 1 1
v 0.07 5.179068E-19 -0.1 1 1 1
v -0.06 0.01 -0.09 1 1 1
v 0.06 0.01 -0.09 1 1 1
v 0.06 0.01 -0.01 1 1 1
v -0.06 0.01 -0.01 1 1 1
v 0.07 5.179068E-19 0 1 1 1
v -0.07 5.179068E-19 0 1 1 1
v -0.07 0 -0.2 1 1 1
v 0.07 0 -0.2 1 1 1
v -0.06 0.01 -0.19 1 1 1
v 0.06 0.01 -0.19 1 1 1
v 0.06 0.01 -0.11 1 1 1
v -0.06 0.01 -0.11 1 1 1
v 0.07 0 -0.1 1 1 1
v -0.07 0 -0.1 1 1 1
v -0.06 0.01 0.01 1 1 1
v 0.06 0.01 0.01 1 1 1
v 0.06 0.01 0.09 1 1 1
v -0.06 0.01 0.09 1 1 1
v 0.07 5.179068E-19 0.1 1 1 1
v -0.07 5.179068E-19 0.1 1 1 1
v -0.07 5.179068E-19 0.1 1 1 1
v 0.07 5.179068E-19 0.1 1 1 1
v -0.06 0.01 0.11 1 1 1
v 0.06 0.01 0.11 1 1 1
v 0.06 0.01 0.19 1 1 1
v -0.06 0.01 0.19 1 1 1
v 0.07 5.179068E-19 0.2 1 1 1
v -0.07 5.179068E-19 0.2 1 1 1

vn -0.4082483 0.8164966 -0.4082483
vn 0.4082483 0.8164966 -0.4082483
vn -0.3001938 0.9054101 -0.3001938
vn 0.3001938 0.9054101 -0.3001938
vn 0.3001938 0.9054101 0.3001938
vn -0.3001938 0.9054101 0.3001938
vn 0.4082483 0.8164966 0.4082483
vn -0.4082483 0.8164966 0.4082483
vn 0 -1 0

vt 0.09375 0.325
vt 0.09375 0.425

usemtl colormap

f 3/2/3 2/1/2 1/1/1
f 2/1/2 3/2/3 4/2/4
f 3/2/3 5/2/5 4/2/4
f 5/2/5 3/2/3 6/2/6
f 4/2/4 7/1/7 2/1/2
f 7/1/7 4/2/4 5/2/5
f 1/1/1 6/2/6 3/2/3
f 6/2/6 1/1/1 8/1/8
f 5/2/5 8/1/8 7/1/7
f 8/1/8 5/2/5 6/2/6
f 8/1/9 2/1/9 7/1/9
f 2/1/9 8/1/9 1/1/9
f 11/2/3 10/1/2 9/1/1
f 10/1/2 11/2/3 12/2/4
f 11/2/3 13/2/5 12/2/4
f 13/2/5 11/2/3 14/2/6
f 12/2/4 15/1/7 10/1/2
f 15/1/7 12/2/4 13/2/5
f 9/1/1 14/2/6 11/2/3
f 14/2/6 9/1/1 16/1/8
f 13/2/5 16/1/8 15/1/7
f 16/1/8 13/2/5 14/2/6
f 16/1/9 10/1/9 15/1/9
f 10/1/9 16/1/9 9/1/9
f 17/2/3 7/1/2 8/1/1
f 7/1/2 17/2/3 18/2/4
f 17/2/3 19/2/5 18/2/4
f 19/2/5 17/2/3 20/2/6
f 18/2/4 21/1/7 7/1/2
f 21/1/7 18/2/4 19/2/5
f 8/1/1 20/2/6 17/2/3
f 20/2/6 8/1/1 22/1/8
f 19/2/5 22/1/8 21/1/7
f 22/1/8 19/2/5 20/2/6
f 22/1/9 7/1/9 21/1/9
f 7/1/9 22/1/9 8/1/9
f 25/2/3 24/1/2 23/1/1
f 24/1/2 25/2/3 26/2/4
f 25/2/3 27/2/5 26/2/4
f 27/2/5 25/2/3 28/2/6
f 26/2/4 29/1/7 24/1/2
f 29/1/7 26/2/4 27/2/5
f 23/1/1 28/2/6 25/2/3
f 28/2/6 23/1/1 30/1/8
f 27/2/5 30/1/8 29/1/7
f 30/1/8 27/2/5 28/2/6
f 30/1/9 24/1/9 29/1/9
f 24/1/9 30/1/9 23/1/9

g path-stones-long




usemtl colormap

f 3/2/3 2/1/2 1/1/1
f 2/1/2 3/2/3 4/2/4
f 3/2/3 5/2/5 4/2/4
f 5/2/5 3/2/3 6/2/6
f 4/2/4 7/1/7 2/1/2
f 7/1/7 4/2/4 5/2/5
f 1/1/1 6/2/6 3/2/3
f 6/2/6 1/1/1 8/1/8
f 5/2/5 8/1/8 7/1/7
f 8/1/8 5/2/5 6/2/6
f 8/1/9 2/1/9 7/1/9
f 2/1/9 8/1/9 1/1/9
f 11/2/3 10/1/2 9/1/1
f 10/1/2 11/2/3 12/2/4
f 11/2/3 13/2/5 12/2/4
f 13/2/5 11/2/3 14/2/6
f 12/2/4 15/1/7 10/1/2
f 15/1/7 12/2/4 13/2/5
f 9/1/1 14/2/6 11/2/3
f 14/2/6 9/1/1 16/1/8
f 13/2/5 16/1/8 15/1/7
f 16/1/8 13/2/5 14/2/6
f 16/1/9 10/1/9 15/1/9
f 10/1/9 16/1/9 9/1/9
f 17/2/3 7/1/2 8/1/1
f 7/1/2 17/2/3 18/2/4
f 17/2/3 19/2/5 18/2/4
f 19/2/5 17/2/3 20/2/6
f 18/2/4 21/1/7 7/1/2
f 21/1/7 18/2/4 19/2/5
f 8/1/1 20/2/6 17/2/3
f 20/2/6 8/1/1 22/1/8
f 19/2/5 22/1/8 21/1/7
f 22/1/8 19/2/5 20/2/6
f 22/1/9 7/1/9 21/1/9
f 7/1/9 22/1/9 8/1/9
f 25/2/3 24/1/2 23/1/1
f 24/1/2 25/2/3 26/2/4
f 25/2/3 27/2/5 26/2/4
f 27/2/5 25/2/3 28/2/6
f 26/2/4 29/1/7 24/1/2
f 29/1/7 26/2/4 27/2/5
f 23/1/1 28/2/6 25/2/3
f 28/2/6 23/1/1 30/1/8
f 27/2/5 30/1/8 29/1/7
f 30/1/8 27/2/5 28/2/6
f 30/1/9 24/1/9 29/1/9
f 24/1/9 30/1/9 23/1/9

